<svg width="1024" height="1024" viewBox="0 0 1024 1024" xmlns="http://www.w3.org/2000/svg">
<defs>
<linearGradient id="bg" x1="0" y1="0" x2="1" y2="1"><stop offset="0" stop-color="#FAAC64"/><stop offset="1" stop-color="#D9551F"/></linearGradient>
<linearGradient id="cap" x1="0" y1="0" x2="0" y2="1"><stop offset="0" stop-color="#FFFFFF"/><stop offset="1" stop-color="#EDF0F7"/></linearGradient>
</defs>
<rect x="0" y="0" width="1024" height="1024" fill="url(#bg)"/>
<ellipse cx="336" cy="264" rx="600" ry="368" fill="#FFFFFF" opacity="0.12"/>
<rect x="176" y="344" width="480" height="400" rx="96" fill="#3A1A08" opacity="0.18"/>
<rect x="160" y="296" width="496" height="416" rx="88" fill="#B7BFD4"/>
<rect x="160" y="248" width="496" height="416" rx="88" fill="url(#cap)" stroke="#D5DAE6" stroke-width="3"/>
<text x="408" y="524" text-anchor="middle" font-family="Helvetica Neue, Arial, sans-serif" font-weight="700" font-size="184" fill="#B23E12">⌘S</text>
<rect x="616" y="688" width="264" height="240" rx="64" fill="#3A1A08" opacity="0.18"/>
<rect x="600" y="656" width="280" height="256" rx="60" fill="#B7BFD4"/>
<rect x="600" y="608" width="280" height="256" rx="60" fill="url(#cap)" stroke="#D5DAE6" stroke-width="3"/>
<rect x="716" y="652" width="48" height="108" rx="24" fill="#B23E12"/>
<path d="M680,736 Q680,792 740,792 Q800,792 800,736" stroke="#B23E12" stroke-width="14" fill="none" stroke-linecap="round"/>
<line x1="740" y1="792" x2="740" y2="824" stroke="#B23E12" stroke-width="14" stroke-linecap="round"/>
<line x1="704" y1="828" x2="776" y2="828" stroke="#B23E12" stroke-width="14" stroke-linecap="round"/>
</svg>
